<svg width="36" height="38" viewBox="0 0 36 38" fill="none" xmlns="http://www.w3.org/2000/svg">
<path d="M16.5 6.33333H11.7C9.17976 6.33333 7.91965 6.33333 6.95704 6.85105C6.11031 7.30645 5.4219 8.03311 4.99047 8.92688C4.5 9.94296 4.5 11.2731 4.5 13.9333V22.1667C4.5 23.6391 4.5 24.3753 4.65333 24.9794C5.06944 26.6186 6.2824 27.8989 7.83531 28.3381C8.40756 28.5 9.10504 28.5 10.5 28.5V32.1979C10.5 33.0416 10.5 33.4634 10.6638 33.6801C10.8063 33.8685 11.0224 33.9781 11.2508 33.9778C11.5134 33.9775 11.8255 33.714 12.4496 33.187L16.0278 30.1654C16.7588 29.5481 17.1243 29.2395 17.5312 29.02C17.8923 28.8253 18.2766 28.683 18.6738 28.597C19.1215 28.5 19.5895 28.5 20.5256 28.5H22.8C25.3202 28.5 26.5804 28.5 27.543 27.9823C28.3897 27.5269 29.0781 26.8002 29.5095 25.9065C30 24.8904 30 23.5602 30 20.9V20.5833M30.182 6.14124C31.9393 7.99623 31.9393 11.0038 30.182 12.8588C28.4246 14.7137 25.5754 14.7137 23.818 12.8588C22.0607 11.0038 22.0607 7.99623 23.818 6.14124C25.5754 4.28625 28.4246 4.28625 30.182 6.14124Z" stroke="black" stroke-width="2" stroke-linecap="round" stroke-linejoin="round"/>
</svg>
