<svg width="31" height="32" viewBox="0 0 31 32" fill="none" xmlns="http://www.w3.org/2000/svg">
<path d="M3.875 10.6666L19.375 10.6666M19.375 10.6666C19.375 12.8758 21.1099 14.6666 23.25 14.6666C25.3901 14.6666 27.125 12.8758 27.125 10.6666C27.125 8.45749 25.3901 6.66663 23.25 6.66663C21.1099 6.66663 19.375 8.45749 19.375 10.6666ZM11.625 21.3333L27.125 21.3333M11.625 21.3333C11.625 23.5424 9.8901 25.3333 7.75 25.3333C5.6099 25.3333 3.875 23.5424 3.875 21.3333C3.875 19.1242 5.6099 17.3333 7.75 17.3333C9.8901 17.3333 11.625 19.1242 11.625 21.3333Z" stroke="black" stroke-width="2" stroke-linecap="round" stroke-linejoin="round"/>
</svg>
