<svg width="39" height="30" viewBox="0 0 39 30" fill="none" xmlns="http://www.w3.org/2000/svg">
<path d="M26 10V5.62585C26 4.58617 26 4.06634 25.7153 3.74687C25.4665 3.46776 25.0813 3.27815 24.6476 3.22138C24.1512 3.1564 23.5376 3.37425 22.3104 3.80993L7.8959 8.92752C6.80145 9.31608 6.25422 9.51036 5.85342 9.81168C5.49909 10.0781 5.22863 10.4032 5.06269 10.7623C4.875 11.1685 4.875 11.6321 4.875 12.5594V18.75M26.8125 18.125H26.8288M4.875 14L4.875 22.25C4.875 23.6502 4.875 24.3502 5.22923 24.885C5.54082 25.3554 6.038 25.7379 6.64953 25.9775C7.34474 26.25 8.25483 26.25 10.075 26.25H28.925C30.7452 26.25 31.6553 26.25 32.3505 25.9775C32.962 25.7379 33.4592 25.3554 33.7708 24.885C34.125 24.3502 34.125 23.6502 34.125 22.25V14C34.125 12.5999 34.125 11.8998 33.7708 11.3651C33.4592 10.8946 32.962 10.5122 32.3505 10.2725C31.6553 10 30.7452 10 28.925 10L10.075 10C8.25483 10 7.34474 10 6.64953 10.2725C6.038 10.5122 5.54082 10.8946 5.22923 11.3651C4.875 11.8998 4.875 12.5999 4.875 14ZM27.625 18.125C27.625 18.4702 27.2612 18.75 26.8125 18.75C26.3638 18.75 26 18.4702 26 18.125C26 17.7799 26.3638 17.5 26.8125 17.5C27.2612 17.5 27.625 17.7799 27.625 18.125Z" stroke="black" stroke-width="2" stroke-linecap="round" stroke-linejoin="round"/>
</svg>
